<svg width="60" height="60" viewBox="0 0 60 60" fill="none" xmlns="http://www.w3.org/2000/svg">
<path d="M18.75 59.0625H41.25C43.2384 59.0603 45.1448 58.2694 46.5508 56.8633C47.9569 55.4573 48.7478 53.5509 48.75 51.5625V8.35312C48.721 6.38081 47.9189 4.4987 46.5162 3.11183C45.1136 1.72495 43.2225 0.944167 41.25 0.9375H18.75C16.7616 0.939733 14.8552 1.73063 13.4492 3.13667C12.0431 4.5427 11.2522 6.44906 11.25 8.4375V51.5625C11.2522 53.5509 12.0431 55.4573 13.4492 56.8633C14.8552 58.2694 16.7616 59.0603 18.75 59.0625ZM30 51.5625C29.3447 51.5646 28.7014 51.7389 28.1347 52.068C27.5681 52.3971 27.0978 52.8694 26.7712 53.4375H18.75C18.2527 53.4375 17.7758 53.24 17.4242 52.8883C17.0725 52.5367 16.875 52.0598 16.875 51.5625V8.4375C16.875 7.94022 17.0725 7.46331 17.4242 7.11167C17.7758 6.76004 18.2527 6.5625 18.75 6.5625H41.25C41.7473 6.5625 42.2242 6.76004 42.5758 7.11167C42.9275 7.46331 43.125 7.94022 43.125 8.4375V51.5625C43.125 52.0598 42.9275 52.5367 42.5758 52.8883C42.2242 53.24 41.7473 53.4375 41.25 53.4375H33.2288C32.9022 52.8694 32.4319 52.3971 31.8653 52.068C31.2986 51.7389 30.6553 51.5646 30 51.5625ZM28.125 55.3125C28.125 54.9417 28.235 54.5791 28.441 54.2708C28.647 53.9625 28.9399 53.7221 29.2825 53.5802C29.6251 53.4383 30.0021 53.4012 30.3658 53.4735C30.7295 53.5459 31.0636 53.7244 31.3258 53.9867C31.5881 54.2489 31.7666 54.583 31.839 54.9467C31.9113 55.3104 31.8742 55.6874 31.7323 56.03C31.5904 56.3726 31.35 56.6655 31.0417 56.8715C30.7334 57.0775 30.3708 57.1875 30 57.1875C29.5027 57.1875 29.0258 56.99 28.6742 56.6383C28.3225 56.2867 28.125 55.8098 28.125 55.3125ZM13.125 8.4375C13.1265 6.94611 13.7196 5.51624 14.7742 4.46167C15.8287 3.4071 17.2586 2.81399 18.75 2.8125H41.25C42.7277 2.81697 44.1447 3.40091 45.1965 4.43886C46.2483 5.47681 46.8509 6.88593 46.875 8.36344V51.5625C46.8735 53.0539 46.2804 54.4838 45.2258 55.5383C44.1713 56.5929 42.7414 57.186 41.25 57.1875H33.2288C33.5662 56.62 33.7461 55.9727 33.75 55.3125H41.25C42.2446 55.3125 43.1984 54.9174 43.9016 54.2141C44.6049 53.5109 45 52.5571 45 51.5625V8.4375C45 7.44294 44.6049 6.48911 43.9016 5.78585C43.1984 5.08259 42.2446 4.6875 41.25 4.6875H18.75C17.7554 4.6875 16.8016 5.08259 16.0984 5.78585C15.3951 6.48911 15 7.44294 15 8.4375V51.5625C15 52.5571 15.3951 53.5109 16.0984 54.2141C16.8016 54.9174 17.7554 55.3125 18.75 55.3125H26.25C26.2539 55.9727 26.4338 56.62 26.7712 57.1875H18.75C17.2586 57.186 15.8287 56.5929 14.7742 55.5383C13.7196 54.4838 13.1265 53.0539 13.125 51.5625V8.4375Z" fill="#2173FF"/>
<path d="M39.375 12.1875H36.5625V11.25C36.5625 11.0014 36.4637 10.7629 36.2879 10.5871C36.1121 10.4113 35.8736 10.3125 35.625 10.3125H20.625C20.3764 10.3125 20.1379 10.4113 19.9621 10.5871C19.7863 10.7629 19.6875 11.0014 19.6875 11.25V18.75C19.6875 18.9986 19.7863 19.2371 19.9621 19.4129C20.1379 19.5887 20.3764 19.6875 20.625 19.6875H35.625C35.8736 19.6875 36.1121 19.5887 36.2879 19.4129C36.4637 19.2371 36.5625 18.9986 36.5625 18.75V17.8125H39.375C39.6236 17.8125 39.8621 17.7137 40.0379 17.5379C40.2137 17.3621 40.3125 17.1236 40.3125 16.875V13.125C40.3125 12.8764 40.2137 12.6379 40.0379 12.4621C39.8621 12.2863 39.6236 12.1875 39.375 12.1875ZM30.5194 12.1875H33L29.4844 17.8125H27L30.5194 12.1875ZM24.7931 17.8125H22.3125L25.8281 12.1875H28.3125L24.7931 17.8125ZM23.625 12.1875L21.5625 15.4819V12.1875H23.625ZM31.6875 17.8125L34.6875 13.0181V17.8125H31.6875ZM38.4375 15.9375H36.5625V14.0625H38.4375V15.9375Z" fill="#2173FF"/>
<path d="M39.375 25.3125H36.5625V24.375C36.5625 24.1264 36.4637 23.8879 36.2879 23.7121C36.1121 23.5363 35.8736 23.4375 35.625 23.4375H20.625C20.3764 23.4375 20.1379 23.5363 19.9621 23.7121C19.7863 23.8879 19.6875 24.1264 19.6875 24.375V31.875C19.6875 32.1236 19.7863 32.3621 19.9621 32.5379C20.1379 32.7137 20.3764 32.8125 20.625 32.8125H35.625C35.8736 32.8125 36.1121 32.7137 36.2879 32.5379C36.4637 32.3621 36.5625 32.1236 36.5625 31.875V30.9375H39.375C39.6236 30.9375 39.8621 30.8387 40.0379 30.6629C40.2137 30.4871 40.3125 30.2486 40.3125 30V26.25C40.3125 26.0014 40.2137 25.7629 40.0379 25.5871C39.8621 25.4113 39.6236 25.3125 39.375 25.3125ZM28.3125 25.3125L24.7969 30.9375H22.3125L25.8281 25.3125H28.3125ZM23.625 25.3125L21.5625 28.6069V25.3125H23.625ZM34.6875 30.9375H27L30.5156 25.3125H34.6875V30.9375ZM38.4375 29.0625H36.5625V27.1875H38.4375V29.0625Z" fill="#2173FF"/>
<path d="M39.375 38.4375H36.5625V37.5C36.5625 37.2514 36.4637 37.0129 36.2879 36.8371C36.1121 36.6613 35.8736 36.5625 35.625 36.5625H20.625C20.3764 36.5625 20.1379 36.6613 19.9621 36.8371C19.7863 37.0129 19.6875 37.2514 19.6875 37.5V45C19.6875 45.2486 19.7863 45.4871 19.9621 45.6629C20.1379 45.8387 20.3764 45.9375 20.625 45.9375H35.625C35.8736 45.9375 36.1121 45.8387 36.2879 45.6629C36.4637 45.4871 36.5625 45.2486 36.5625 45V44.0625H39.375C39.6236 44.0625 39.8621 43.9637 40.0379 43.7879C40.2137 43.6121 40.3125 43.3736 40.3125 43.125V39.375C40.3125 39.1264 40.2137 38.8879 40.0379 38.7121C39.8621 38.5363 39.6236 38.4375 39.375 38.4375ZM23.625 38.4375L21.5625 41.7319V38.4375H23.625ZM34.6875 44.0625H22.3125L25.8281 38.4375H34.6875V44.0625ZM38.4375 42.1875H36.5625V40.3125H38.4375V42.1875Z" fill="#2173FF"/>
</svg>
