<svg width="60" height="60" viewBox="0 0 60 60" fill="none" xmlns="http://www.w3.org/2000/svg">
<path d="M41.25 0.9375H18.75C16.7616 0.939733 14.8552 1.73063 13.4492 3.13667C12.0431 4.5427 11.2522 6.44906 11.25 8.4375V51.5625C11.2522 53.5509 12.0431 55.4573 13.4492 56.8633C14.8552 58.2694 16.7616 59.0603 18.75 59.0625H41.25C43.2384 59.0603 45.1448 58.2694 46.5508 56.8633C47.9569 55.4573 48.7478 53.5509 48.75 51.5625V8.35312C48.7213 6.38073 47.9192 4.49849 46.5165 3.11156C45.1138 1.72463 43.2226 0.943926 41.25 0.9375ZM24.5522 6.5625L28.1447 23.6306C28.1845 23.8194 28.2816 23.9912 28.4227 24.1228C28.5638 24.2543 28.7421 24.3391 28.9331 24.3656C28.976 24.372 29.0192 24.3751 29.0625 24.375C29.2333 24.375 29.4008 24.3284 29.547 24.2402C29.6933 24.152 29.8126 24.0255 29.8922 23.8744L39 6.5625H41.25C41.7473 6.5625 42.2242 6.76004 42.5758 7.11167C42.9275 7.46331 43.125 7.94022 43.125 8.4375V13.4831L36.1434 16.9734C36.0277 17.0322 35.9255 17.1144 35.8432 17.2148C35.7609 17.3152 35.7003 17.4316 35.6653 17.5566L33.8419 23.9362L30.4866 28.125H24.9928L22.4241 22.1306H22.4166C22.3569 21.9855 22.2615 21.8578 22.1392 21.7594C22.0169 21.6611 21.8718 21.5953 21.7172 21.5681L16.875 20.7684V12.7669L23.0184 15.8438C23.182 15.9242 23.3654 15.9552 23.5463 15.933C23.7272 15.9109 23.8978 15.8364 24.037 15.7188C24.1763 15.6013 24.2783 15.4456 24.3305 15.271C24.3827 15.0964 24.3828 14.9103 24.3309 14.7356L21.885 6.5625H24.5522ZM26.4675 6.5625H36.885L29.4441 20.6991L26.4675 6.5625ZM30.7575 51.6394L25.5637 30H30.2119L36.2887 53.4375H33.2288C32.9662 52.9811 32.6104 52.5851 32.1846 52.2753C31.7588 51.9655 31.2726 51.7488 30.7575 51.6394ZM38.2256 53.4375L31.9631 29.2809L34.5469 26.0522L43.125 41.4928V51.5625C43.125 52.0598 42.9275 52.5367 42.5758 52.8883C42.2242 53.24 41.7473 53.4375 41.25 53.4375H38.2256ZM35.6944 24.2597L37.1841 19.0472L43.125 21.2747V37.6322L35.6944 24.2597ZM43.125 19.2722L38.9062 17.6897L43.125 15.5794V19.2722ZM19.9275 6.5625L21.9159 13.1906L16.875 10.6706V8.4375C16.875 7.94022 17.0725 7.46331 17.4242 7.11167C17.7758 6.76004 18.2527 6.5625 18.75 6.5625H19.9275ZM16.875 22.6688L19.6116 23.1253L16.875 25.8619V22.6688ZM16.875 28.5131L21.2466 24.1416L23.2894 28.9088L16.875 36.75V28.5131ZM16.875 39.7097L23.9062 31.1184L28.8581 51.7594C27.9793 52.0422 27.2361 52.6399 26.7712 53.4375H18.75C18.2527 53.4375 17.7758 53.24 17.4242 52.8883C17.0725 52.5367 16.875 52.0598 16.875 51.5625V39.7097ZM28.125 55.3125C28.125 54.9417 28.235 54.5791 28.441 54.2708C28.647 53.9625 28.9399 53.7221 29.2825 53.5802C29.6251 53.4383 30.0021 53.4012 30.3658 53.4735C30.7295 53.5459 31.0636 53.7244 31.3258 53.9867C31.5881 54.2489 31.7666 54.583 31.839 54.9467C31.9113 55.3104 31.8742 55.6874 31.7323 56.03C31.5904 56.3726 31.35 56.6655 31.0417 56.8715C30.7334 57.0775 30.3708 57.1875 30 57.1875C29.5027 57.1875 29.0258 56.99 28.6742 56.6383C28.3225 56.2867 28.125 55.8098 28.125 55.3125ZM46.875 51.5625C46.8735 53.0539 46.2804 54.4838 45.2258 55.5383C44.1713 56.5929 42.7414 57.186 41.25 57.1875H33.2288C33.5662 56.62 33.7461 55.9727 33.75 55.3125H41.25C42.2446 55.3125 43.1984 54.9174 43.9016 54.2141C44.6049 53.5109 45 52.5571 45 51.5625V8.4375C45 7.44294 44.6049 6.48911 43.9016 5.78585C43.1984 5.08259 42.2446 4.6875 41.25 4.6875H18.75C17.7554 4.6875 16.8016 5.08259 16.0984 5.78585C15.3951 6.48911 15 7.44294 15 8.4375V51.5625C15 52.5571 15.3951 53.5109 16.0984 54.2141C16.8016 54.9174 17.7554 55.3125 18.75 55.3125H26.25C26.2539 55.9727 26.4338 56.62 26.7712 57.1875H18.75C17.2586 57.186 15.8287 56.5929 14.7742 55.5383C13.7196 54.4838 13.1265 53.0539 13.125 51.5625V8.4375C13.1265 6.94611 13.7196 5.51624 14.7742 4.46167C15.8287 3.4071 17.2586 2.81399 18.75 2.8125H41.25C42.7278 2.81673 44.1449 3.4006 45.1967 4.43859C46.2486 5.47659 46.8512 6.88585 46.875 8.36344V51.5625Z" fill="#2173FF"/>
<path d="M4.6875 40.3126H4.72406C4.89192 40.3061 5.05496 40.2547 5.19614 40.1637C5.33731 40.0726 5.45143 39.9453 5.52656 39.7951L8.33907 34.1701C8.41634 34.0153 8.4493 33.8422 8.43429 33.6699C8.41929 33.4976 8.3569 33.3328 8.25404 33.1937C8.15117 33.0546 8.01184 32.9467 7.85146 32.882C7.69108 32.8172 7.5159 32.798 7.34531 32.8266L1.72031 33.7641C1.56982 33.7894 1.42777 33.8511 1.30652 33.9438C1.18527 34.0365 1.08848 34.1573 1.02455 34.2959C0.960616 34.4345 0.931483 34.5866 0.939676 34.739C0.94787 34.8914 0.993143 35.0395 1.07156 35.1704L3.88406 39.8579C3.96738 39.9966 4.08515 40.1113 4.22594 40.191C4.36672 40.2707 4.52573 40.3125 4.6875 40.3126ZM5.83875 34.9782L4.6125 37.4288L3.38719 35.386L5.83875 34.9782Z" fill="#2173FF"/>
<path d="M5.89969 58.7879C6.07546 58.9637 6.31388 59.0625 6.5625 59.0626C6.64707 59.0625 6.73124 59.0511 6.81281 59.0288C6.97223 58.984 7.11694 58.8978 7.23221 58.7789C7.34748 58.66 7.4292 58.5127 7.46906 58.352L9.34406 50.852C9.39088 50.6645 9.37862 50.4671 9.30898 50.2869C9.23934 50.1067 9.11571 49.9524 8.955 49.8451L6.1425 47.9701C6.03186 47.8962 5.90676 47.8467 5.77552 47.8249C5.64428 47.8031 5.50991 47.8095 5.38133 47.8437C5.25275 47.8778 5.1329 47.9389 5.02976 48.0229C4.92662 48.107 4.84255 48.212 4.78313 48.331L1.97063 53.956C1.88278 54.132 1.85253 54.3312 1.88416 54.5254C1.91579 54.7196 2.0077 54.8989 2.14688 55.0379L5.89969 58.7879ZM5.98875 50.1188L7.36781 51.0385L6.05531 56.2885L3.95344 54.1876L5.98875 50.1188Z" fill="#2173FF"/>
<path d="M52.5478 36.8588C52.5982 37.0106 52.6866 37.1469 52.8046 37.2549C52.9226 37.3629 53.0662 37.4389 53.2219 37.4757C53.2926 37.4916 53.365 37.4998 53.4375 37.5C53.6861 37.5 53.9245 37.4012 54.1003 37.2254L57.8503 33.4754C58.0261 33.2996 58.1248 33.0611 58.1248 32.8125C58.1248 32.564 58.0261 32.3255 57.8503 32.1497L52.2253 26.5247C52.0942 26.3937 51.9272 26.3044 51.7453 26.2682C51.5635 26.2321 51.375 26.2507 51.2038 26.3216C51.0325 26.3925 50.8861 26.5127 50.7831 26.6668C50.68 26.8209 50.625 27.0022 50.625 27.1875V30.9375C50.6249 31.0382 50.6411 31.1383 50.6728 31.2338L52.5478 36.8588ZM52.5 29.4507L55.8619 32.8125L53.8472 34.8263L52.5 30.7857V29.4507Z" fill="#2173FF"/>
<path d="M52.5478 58.4212C52.592 58.5543 52.6655 58.6757 52.7628 58.7767C52.8602 58.8776 52.9789 58.9554 53.1103 59.0043C53.2151 59.0427 53.3259 59.0624 53.4375 59.0625C53.6076 59.0624 53.7745 59.0161 53.9203 58.9284L58.6078 56.1159C58.7187 56.0494 58.8147 55.9606 58.8897 55.8552C58.9646 55.7498 59.017 55.63 59.0434 55.5034C59.0698 55.3767 59.0697 55.246 59.0432 55.1194C59.0166 54.9928 58.9641 54.8731 58.8891 54.7678L54.2016 48.2053C54.1076 48.0735 53.9812 47.9684 53.8346 47.8999C53.688 47.8315 53.5262 47.8022 53.3649 47.8149C53.2036 47.8275 53.0484 47.8817 52.9142 47.9721C52.7801 48.0625 52.6716 48.1861 52.5994 48.3309L50.7244 52.0809C50.6134 52.3032 50.5951 52.5605 50.6737 52.7962L52.5478 58.4212ZM53.5791 50.5621L56.7722 55.0312L53.9597 56.7187L52.575 52.5721L53.5791 50.5621Z" fill="#2173FF"/>
</svg>
