<svg width="60" height="60" viewBox="0 0 60 60" fill="none" xmlns="http://www.w3.org/2000/svg">
<path d="M51.8372 17.1497L53.1628 18.4753C53.8467 17.7955 54.3888 16.9867 54.7578 16.0958C55.1268 15.2049 55.3153 14.2496 55.3125 13.2853V12.9647C55.3153 12.0004 55.1268 11.0452 54.7578 10.1543C54.3888 9.26339 53.8467 8.45458 53.1628 7.77472L51.8372 9.10034C52.3463 9.6066 52.7499 10.2088 53.0246 10.8722C53.2993 11.5355 53.4396 12.2468 53.4375 12.9647V13.2853C53.4396 14.0033 53.2993 14.7146 53.0246 15.3779C52.7499 16.0412 52.3463 16.6435 51.8372 17.1497Z" fill="#2173FF"/>
<path d="M54.6497 6.28784C55.4569 7.09064 56.0968 8.04558 56.5324 9.09737C56.968 10.1492 57.1907 11.2769 57.1875 12.4153V13.8347C57.1907 14.9731 56.968 16.1009 56.5324 17.1527C56.0968 18.2045 55.4569 19.1594 54.6497 19.9622L55.9753 21.2878C56.9572 20.3114 57.7356 19.1499 58.2656 17.8706C58.7955 16.5912 59.0664 15.2195 59.0625 13.8347V12.4153C59.0664 11.0306 58.7955 9.65885 58.2656 8.37951C57.7356 7.10017 56.9572 5.93865 55.9753 4.96222L54.6497 6.28784Z" fill="#2173FF"/>
<path d="M46.7344 27.4276C46.3758 26.7873 45.8534 26.254 45.2207 25.8823C44.5881 25.5105 43.8679 25.3138 43.1341 25.3123C42.4003 25.3108 41.6793 25.5045 41.045 25.8736C40.4108 26.2427 39.8862 26.7738 39.525 27.4126L38.4375 29.2707V20.2707L48.3309 25.2188C48.4743 25.2904 48.6335 25.3241 48.7936 25.3167C48.9536 25.3092 49.1091 25.2609 49.2452 25.1763C49.3812 25.0917 49.4933 24.9736 49.5707 24.8333C49.6482 24.6931 49.6884 24.5353 49.6875 24.3751V1.87507C49.6876 1.71525 49.6468 1.55806 49.569 1.41844C49.4913 1.27882 49.3791 1.16139 49.2432 1.07732C49.1072 0.993252 48.9521 0.945325 48.7924 0.938094C48.6328 0.930863 48.4739 0.964568 48.3309 1.03601L38.0812 6.16132C37.5939 4.6483 36.6404 3.32821 35.3572 2.38993C34.0741 1.45166 32.5271 0.943295 30.9375 0.937571H8.4375C6.44906 0.939804 4.5427 1.7307 3.13667 3.13674C1.73063 4.54278 0.939733 6.44913 0.9375 8.43757V51.5626C0.939733 53.551 1.73063 55.4574 3.13667 56.8634C4.5427 58.2694 6.44906 59.0603 8.4375 59.0626H30.9375C32.5979 59.0552 34.2094 58.4998 35.5219 57.4827C36.8343 56.4656 37.7742 55.0436 38.1956 53.4376H55.1747C55.859 53.4374 56.5311 53.2566 57.1231 52.9136C57.7152 52.5705 58.2062 52.0773 58.5467 51.4838C58.8872 50.8902 59.065 50.2173 59.0622 49.5331C59.0595 48.8488 58.8762 48.1774 58.5309 47.5866L46.7344 27.4276ZM36.5625 32.4751L34.6875 35.6794V18.7501H35.4038L36.5625 19.3294V32.4751ZM30.9919 53.4291C30.9731 53.4291 30.9562 53.4376 30.9375 53.4376H22.9163C22.5913 52.868 22.1215 52.3945 21.5544 52.0651C20.9874 51.7358 20.3433 51.5623 19.6875 51.5623C19.0317 51.5623 18.3876 51.7358 17.8206 52.0651C17.2535 52.3945 16.7837 52.868 16.4587 53.4376H8.4375C7.94022 53.4376 7.46331 53.24 7.11167 52.8884C6.76004 52.5368 6.5625 52.0599 6.5625 51.5626V8.43757C6.5625 7.94029 6.76004 7.46338 7.11167 7.11175C7.46331 6.76012 7.94022 6.56257 8.4375 6.56257H30.9375C31.2652 6.56356 31.5868 6.6507 31.8702 6.81525C32.1535 6.9798 32.3886 7.21597 32.5519 7.50007H30C29.7514 7.50007 29.5129 7.59884 29.3371 7.77466C29.1613 7.95047 29.0625 8.18893 29.0625 8.43757V17.8126C29.0625 18.0612 29.1613 18.2997 29.3371 18.4755C29.5129 18.6513 29.7514 18.7501 30 18.7501H32.8125V38.8838L27.7191 47.5876C27.3771 48.1716 27.1938 48.835 27.1874 49.5118C27.1809 50.1885 27.3516 50.8552 27.6824 51.4457C28.0132 52.0362 28.4927 52.5299 29.0732 52.8778C29.6538 53.2257 30.3152 53.4158 30.9919 53.4291ZM17.8125 55.3126C17.8125 54.9417 17.9225 54.5792 18.1285 54.2709C18.3345 53.9625 18.6274 53.7222 18.97 53.5803C19.3126 53.4384 19.6896 53.4012 20.0533 53.4736C20.417 53.5459 20.7511 53.7245 21.0133 53.9867C21.2755 54.249 21.4541 54.5831 21.5265 54.9468C21.5988 55.3105 21.5617 55.6875 21.4198 56.0301C21.2779 56.3727 21.0375 56.6656 20.7292 56.8716C20.4209 57.0776 20.0583 57.1876 19.6875 57.1876C19.1902 57.1876 18.7133 56.99 18.3617 56.6384C18.01 56.2868 17.8125 55.8099 17.8125 55.3126ZM30.9375 16.8751V9.37507H34.6875V16.8751H30.9375ZM47.8125 22.8582L36.5625 17.2332V9.01695L47.8125 3.39195V22.8582ZM2.8125 51.5626V8.43757C2.81399 6.94619 3.4071 5.51631 4.46167 4.46174C5.51624 3.40717 6.94611 2.81406 8.4375 2.81257H30.9375C32.1789 2.81858 33.3835 3.23453 34.3641 3.99575C35.3447 4.75697 36.0464 5.82083 36.36 7.02195L35.4038 7.50007H34.5544C34.3471 6.69744 33.8798 5.98609 33.2254 5.47723C32.571 4.96837 31.7665 4.69068 30.9375 4.68757H8.4375C7.44294 4.68757 6.48911 5.08266 5.78585 5.78592C5.08259 6.48918 4.6875 7.44301 4.6875 8.43757V51.5626C4.6875 52.5571 5.08259 53.511 5.78585 54.2142C6.48911 54.9175 7.44294 55.3126 8.4375 55.3126H15.9375C15.9414 55.9728 16.1213 56.6201 16.4587 57.1876H8.4375C6.94611 57.1861 5.51624 56.593 4.46167 55.5384C3.4071 54.4838 2.81399 53.054 2.8125 51.5626ZM30.9375 57.1876H22.9163C23.2537 56.6201 23.4336 55.9728 23.4375 55.3126H30.9375C31.5946 55.3114 32.2399 55.1376 32.8087 54.8085C33.3775 54.4794 33.8499 54.0067 34.1784 53.4376H36.2344C35.8437 54.5311 35.1257 55.4778 34.1779 56.1487C33.2302 56.8197 32.0987 57.1824 30.9375 57.1876ZM55.1747 51.5626H31.0753C30.721 51.5625 30.3731 51.469 30.0665 51.2914C29.76 51.1138 29.5058 50.8584 29.3295 50.5511C29.1533 50.2438 29.0612 49.8954 29.0628 49.5412C29.0643 49.1869 29.1593 48.8393 29.3381 48.5335L41.1562 28.3444C41.3534 27.9924 41.641 27.6996 41.9895 27.4962C42.3379 27.2928 42.7344 27.1864 43.1379 27.1879C43.5413 27.1895 43.937 27.2989 44.2839 27.5049C44.6307 27.7109 44.9162 28.0059 45.1106 28.3594L56.9119 48.5326C57.091 48.8384 57.1862 49.1861 57.1878 49.5405C57.1894 49.8949 57.0975 50.2434 56.9212 50.5509C56.7449 50.8584 56.4906 51.1138 56.1839 51.2915C55.8772 51.4691 55.5291 51.5626 55.1747 51.5626Z" fill="#2173FF"/>
<path d="M45 32.8125H41.25C41.0014 32.8125 40.7629 32.9113 40.5871 33.0871C40.4113 33.2629 40.3125 33.5014 40.3125 33.75V41.25C40.3125 41.4986 40.4113 41.7371 40.5871 41.9129C40.7629 42.0887 41.0014 42.1875 41.25 42.1875H45C45.2486 42.1875 45.4871 42.0887 45.6629 41.9129C45.8387 41.7371 45.9375 41.4986 45.9375 41.25V33.75C45.9375 33.5014 45.8387 33.2629 45.6629 33.0871C45.4871 32.9113 45.2486 32.8125 45 32.8125ZM44.0625 40.3125H42.1875V34.6875H44.0625V40.3125Z" fill="#2173FF"/>
<path d="M43.125 44.0625C42.5687 44.0625 42.025 44.2275 41.5625 44.5365C41.0999 44.8455 40.7395 45.2848 40.5266 45.7987C40.3137 46.3126 40.258 46.8781 40.3665 47.4237C40.4751 47.9693 40.7429 48.4704 41.1363 48.8637C41.5296 49.2571 42.0307 49.5249 42.5763 49.6335C43.1219 49.742 43.6874 49.6863 44.2013 49.4734C44.7152 49.2605 45.1545 48.9001 45.4635 48.4375C45.7726 47.975 45.9375 47.4313 45.9375 46.875C45.9375 46.1291 45.6412 45.4137 45.1137 44.8863C44.5863 44.3588 43.8709 44.0625 43.125 44.0625ZM43.125 47.8125C42.9396 47.8125 42.7583 47.7575 42.6042 47.6545C42.45 47.5515 42.3298 47.4051 42.2589 47.2338C42.1879 47.0625 42.1693 46.874 42.2055 46.6921C42.2417 46.5102 42.331 46.3432 42.4621 46.2121C42.5932 46.081 42.7602 45.9917 42.9421 45.9555C43.124 45.9193 43.3125 45.9379 43.4838 46.0089C43.6551 46.0798 43.8015 46.2 43.9045 46.3542C44.0075 46.5083 44.0625 46.6896 44.0625 46.875C44.0625 47.1236 43.9637 47.3621 43.7879 47.5379C43.6121 47.7137 43.3736 47.8125 43.125 47.8125Z" fill="#2173FF"/>
</svg>
