<svg width="60" height="60" viewBox="0 0 60 60" fill="none" xmlns="http://www.w3.org/2000/svg">
<path d="M41.25 59.0625C43.2384 59.0603 45.1448 58.2694 46.5508 56.8633C47.9569 55.4573 48.7478 53.5509 48.75 51.5625V8.35312C48.721 6.38081 47.9189 4.4987 46.5162 3.11183C45.1136 1.72495 43.2225 0.944167 41.25 0.9375H18.75C16.7616 0.939733 14.8552 1.73063 13.4492 3.13667C12.0431 4.5427 11.2522 6.44906 11.25 8.4375V51.5625C11.2522 53.5509 12.0431 55.4573 13.4492 56.8633C14.8552 58.2694 16.7616 59.0603 18.75 59.0625H41.25ZM22.5 43.125V53.4375H20.625V48.75H18.75V53.4375C18.2527 53.4375 17.7758 53.24 17.4242 52.8883C17.0725 52.5367 16.875 52.0598 16.875 51.5625V8.4375C16.875 7.94022 17.0725 7.46331 17.4242 7.11167C17.7758 6.76004 18.2527 6.5625 18.75 6.5625H19.6875V33.75H21.5625V6.5625H26.25V44.0625H28.125V6.5625H30V34.6875H31.875V6.5625H35.625V53.4375H33.2288C32.9038 52.8679 32.434 52.3944 31.8669 52.0651C31.2999 51.7357 30.6558 51.5622 30 51.5622C29.3442 51.5622 28.7001 51.7357 28.1331 52.0651C27.566 52.3944 27.0962 52.8679 26.7712 53.4375H24.375V43.125H22.5ZM41.25 17.8125V6.5625C41.7473 6.5625 42.2242 6.76004 42.5758 7.11167C42.9275 7.46331 43.125 7.94022 43.125 8.4375V51.5625C43.125 52.0598 42.9275 52.5367 42.5758 52.8883C42.2242 53.24 41.7473 53.4375 41.25 53.4375V30H39.375V53.4375H37.5V6.5625H39.375V17.8125H41.25ZM28.125 55.3125C28.125 54.9417 28.235 54.5791 28.441 54.2708C28.647 53.9625 28.9399 53.7221 29.2825 53.5802C29.6251 53.4383 30.0021 53.4012 30.3658 53.4735C30.7295 53.5459 31.0636 53.7244 31.3258 53.9867C31.5881 54.2489 31.7666 54.583 31.839 54.9467C31.9113 55.3104 31.8742 55.6874 31.7323 56.03C31.5904 56.3726 31.35 56.6655 31.0417 56.8715C30.7334 57.0775 30.3708 57.1875 30 57.1875C29.5027 57.1875 29.0258 56.99 28.6742 56.6383C28.3225 56.2867 28.125 55.8098 28.125 55.3125ZM13.125 51.5625V8.4375C13.1265 6.94611 13.7196 5.51624 14.7742 4.46167C15.8287 3.4071 17.2586 2.81399 18.75 2.8125H41.25C42.7277 2.81697 44.1447 3.40091 45.1965 4.43886C46.2483 5.47681 46.8509 6.88593 46.875 8.36344V51.5625C46.8735 53.0539 46.2804 54.4838 45.2258 55.5383C44.1713 56.5929 42.7414 57.186 41.25 57.1875H33.2288C33.5662 56.62 33.7461 55.9727 33.75 55.3125H41.25C42.2446 55.3125 43.1984 54.9174 43.9016 54.2141C44.6049 53.5109 45 52.5571 45 51.5625V8.4375C45 7.44294 44.6049 6.48911 43.9016 5.78585C43.1984 5.08259 42.2446 4.6875 41.25 4.6875H18.75C17.7554 4.6875 16.8016 5.08259 16.0984 5.78585C15.3951 6.48911 15 7.44294 15 8.4375V51.5625C15 52.5571 15.3951 53.5109 16.0984 54.2141C16.8016 54.9174 17.7554 55.3125 18.75 55.3125H26.25C26.2539 55.9727 26.4338 56.62 26.7712 57.1875H18.75C17.2586 57.186 15.8287 56.5929 14.7742 55.5383C13.7196 54.4838 13.1265 53.0539 13.125 51.5625Z" fill="#2173FF"/>
</svg>
