<svg width="60" height="60" viewBox="0 0 60 60" fill="none" xmlns="http://www.w3.org/2000/svg">
<path d="M11.25 51.5625C11.2522 53.5509 12.0431 55.4573 13.4492 56.8633C14.8552 58.2694 16.7616 59.0603 18.75 59.0625H41.25C43.2384 59.0603 45.1448 58.2694 46.5508 56.8633C47.9569 55.4573 48.7478 53.5509 48.75 51.5625V8.35312C48.721 6.38081 47.9189 4.4987 46.5162 3.11183C45.1136 1.72495 43.2225 0.944167 41.25 0.9375H18.75C16.7616 0.939733 14.8552 1.73063 13.4492 3.13667C12.0431 4.5427 11.2522 6.44906 11.25 8.4375V51.5625ZM16.875 13.0772C17.6378 13.714 18.6001 14.0627 19.5938 14.0625C20.3548 14.0624 21.1041 13.874 21.7747 13.5141C22.4454 13.1543 23.0166 12.6341 23.4375 12C23.5914 11.7679 23.8004 11.5776 24.0458 11.4459C24.2911 11.3142 24.5653 11.2453 24.8438 11.2453C25.1222 11.2453 25.3964 11.3142 25.6417 11.4459C25.8871 11.5776 26.0961 11.7679 26.25 12L26.3053 12.0825C26.7109 12.6906 27.2603 13.1893 27.9048 13.5341C28.5493 13.879 29.269 14.0595 30 14.0595C30.731 14.0595 31.4507 13.879 32.0952 13.5341C32.7397 13.1893 33.2891 12.6906 33.6947 12.0825L33.75 12C33.9039 11.7679 34.1129 11.5776 34.3583 11.4459C34.6036 11.3142 34.8778 11.2453 35.1562 11.2453C35.4347 11.2453 35.7089 11.3142 35.9542 11.4459C36.1996 11.5776 36.4086 11.7679 36.5625 12C36.9834 12.6341 37.5546 13.1543 38.2253 13.5141C38.8959 13.874 39.6452 14.0624 40.4062 14.0625C41.3999 14.0627 42.3622 13.714 43.125 13.0772V14.7188L42.3928 15.8175C42.1753 16.1435 41.8805 16.4107 41.5347 16.5952C41.1889 16.7797 40.8029 16.8758 40.4109 16.875C39.958 16.8756 39.5119 16.764 39.1126 16.5502C38.7133 16.3364 38.3731 16.027 38.1225 15.6497C37.7973 15.1608 37.3564 14.7599 36.8389 14.4826C36.3214 14.2053 35.7434 14.0602 35.1562 14.0602C34.5691 14.0602 33.9911 14.2053 33.4736 14.4826C32.9561 14.7599 32.5152 15.1608 32.19 15.6497L32.1347 15.7322C31.9005 16.0837 31.5831 16.372 31.2107 16.5714C30.8383 16.7708 30.4224 16.8751 30 16.8751C29.5776 16.8751 29.1617 16.7708 28.7893 16.5714C28.4169 16.372 28.0995 16.0837 27.8653 15.7322L27.81 15.6497C27.4848 15.1608 27.0439 14.7599 26.5264 14.4826C26.0089 14.2053 25.4309 14.0602 24.8438 14.0602C24.2566 14.0602 23.6786 14.2053 23.1611 14.4826C22.6436 14.7599 22.2027 15.1608 21.8775 15.6497C21.6273 16.0263 21.2879 16.3353 20.8895 16.5491C20.491 16.7628 20.0459 16.8748 19.5938 16.875C19.2016 16.8755 18.8153 16.779 18.4695 16.594C18.1237 16.4089 17.8291 16.1412 17.6119 15.8147L16.875 14.7188V13.0772ZM43.125 10.0312L42.3928 11.13C42.1753 11.456 41.8805 11.7232 41.5347 11.9077C41.1889 12.0922 40.8029 12.1883 40.4109 12.1875C39.958 12.1881 39.5119 12.0765 39.1126 11.8627C38.7133 11.6489 38.3731 11.3395 38.1225 10.9622C37.7973 10.4733 37.3564 10.0724 36.8389 9.79511C36.3214 9.51781 35.7434 9.3727 35.1562 9.3727C34.5691 9.3727 33.9911 9.51781 33.4736 9.79511C32.9561 10.0724 32.5152 10.4733 32.19 10.9622L32.1347 11.0447C31.9005 11.3962 31.5831 11.6845 31.2107 11.8839C30.8383 12.0833 30.4224 12.1876 30 12.1876C29.5776 12.1876 29.1617 12.0833 28.7893 11.8839C28.4169 11.6845 28.0995 11.3962 27.8653 11.0447L27.81 10.9622C27.4848 10.4733 27.0439 10.0724 26.5264 9.79511C26.0089 9.51781 25.4309 9.3727 24.8438 9.3727C24.2566 9.3727 23.6786 9.51781 23.1611 9.79511C22.6436 10.0724 22.2027 10.4733 21.8775 10.9622C21.6273 11.3388 21.2879 11.6478 20.8895 11.8616C20.491 12.0753 20.0459 12.1873 19.5938 12.1875C19.2016 12.188 18.8153 12.0915 18.4695 11.9065C18.1237 11.7214 17.8291 11.4537 17.6119 11.1272L16.875 10.0312V8.4375C16.875 7.94022 17.0725 7.46331 17.4242 7.11167C17.7758 6.76004 18.2527 6.5625 18.75 6.5625H41.25C41.7473 6.5625 42.2242 6.76004 42.5758 7.11167C42.9275 7.46331 43.125 7.94022 43.125 8.4375V10.0312ZM16.875 17.7647C17.6378 18.4015 18.6001 18.7502 19.5938 18.75C20.3548 18.7499 21.1041 18.5615 21.7747 18.2016C22.4454 17.8418 23.0166 17.3216 23.4375 16.6875C23.5914 16.4554 23.8004 16.2651 24.0458 16.1334C24.2911 16.0017 24.5653 15.9328 24.8438 15.9328C25.1222 15.9328 25.3964 16.0017 25.6417 16.1334C25.8871 16.2651 26.0961 16.4554 26.25 16.6875L26.3053 16.77C26.7109 17.3781 27.2603 17.8768 27.9048 18.2216C28.5493 18.5665 29.269 18.747 30 18.747C30.731 18.747 31.4507 18.5665 32.0952 18.2216C32.7397 17.8768 33.2891 17.3781 33.6947 16.77L33.75 16.6875C33.9039 16.4554 34.1129 16.2651 34.3583 16.1334C34.6036 16.0017 34.8778 15.9328 35.1562 15.9328C35.4347 15.9328 35.7089 16.0017 35.9542 16.1334C36.1996 16.2651 36.4086 16.4554 36.5625 16.6875C36.9834 17.3216 37.5546 17.8418 38.2253 18.2016C38.8959 18.5615 39.6452 18.7499 40.4062 18.75C41.3999 18.7502 42.3622 18.4015 43.125 17.7647V51.5625C43.125 52.0598 42.9275 52.5367 42.5758 52.8883C42.2242 53.24 41.7473 53.4375 41.25 53.4375H33.2288C32.9038 52.8679 32.434 52.3944 31.8669 52.0651C31.2999 51.7357 30.6558 51.5622 30 51.5622C29.3442 51.5622 28.7001 51.7357 28.1331 52.0651C27.566 52.3944 27.0962 52.8679 26.7712 53.4375H18.75C18.2527 53.4375 17.7758 53.24 17.4242 52.8883C17.0725 52.5367 16.875 52.0598 16.875 51.5625V17.7647ZM28.125 55.3125C28.125 54.9417 28.235 54.5791 28.441 54.2708C28.647 53.9625 28.9399 53.7221 29.2825 53.5802C29.6251 53.4383 30.0021 53.4012 30.3658 53.4735C30.7295 53.5459 31.0636 53.7244 31.3258 53.9867C31.5881 54.2489 31.7666 54.583 31.839 54.9467C31.9113 55.3104 31.8742 55.6874 31.7323 56.03C31.5904 56.3726 31.35 56.6655 31.0417 56.8715C30.7334 57.0775 30.3708 57.1875 30 57.1875C29.5027 57.1875 29.0258 56.99 28.6742 56.6383C28.3225 56.2867 28.125 55.8098 28.125 55.3125ZM13.125 8.4375C13.1265 6.94611 13.7196 5.51624 14.7742 4.46167C15.8287 3.4071 17.2586 2.81399 18.75 2.8125H41.25C42.7277 2.81697 44.1447 3.40091 45.1965 4.43886C46.2483 5.47681 46.8509 6.88593 46.875 8.36344V51.5625C46.8735 53.0539 46.2804 54.4838 45.2258 55.5383C44.1713 56.5929 42.7414 57.186 41.25 57.1875H33.2288C33.5662 56.62 33.7461 55.9727 33.75 55.3125H41.25C42.2446 55.3125 43.1984 54.9174 43.9016 54.2141C44.6049 53.5109 45 52.5571 45 51.5625V8.4375C45 7.44294 44.6049 6.48911 43.9016 5.78585C43.1984 5.08259 42.2446 4.6875 41.25 4.6875H18.75C17.7554 4.6875 16.8016 5.08259 16.0984 5.78585C15.3951 6.48911 15 7.44294 15 8.4375V51.5625C15 52.5571 15.3951 53.5109 16.0984 54.2141C16.8016 54.9174 17.7554 55.3125 18.75 55.3125H26.25C26.2539 55.9727 26.4338 56.62 26.7712 57.1875H18.75C17.2586 57.186 15.8287 56.5929 14.7742 55.5383C13.7196 54.4838 13.1265 53.0539 13.125 51.5625V8.4375Z" fill="#2173FF"/>
<path d="M30 49.6875C31.9884 49.6852 33.8948 48.8943 35.3008 47.4883C36.7069 46.0822 37.4978 44.1759 37.5 42.1875C37.5 38.3268 31.4062 31.1334 30.7106 30.3262C30.62 30.2282 30.5101 30.1499 30.3878 30.0964C30.2655 30.0429 30.1335 30.0153 30 30.0153C29.8665 30.0153 29.7345 30.0429 29.6122 30.0964C29.4899 30.1499 29.38 30.2282 29.2894 30.3262C28.5938 31.1334 22.5 38.3268 22.5 42.1875C22.5022 44.1759 23.2931 46.0822 24.6992 47.4883C26.1052 48.8943 28.0116 49.6852 30 49.6875ZM30 32.4009C32.0466 34.9153 35.625 39.8071 35.625 42.1875C35.625 43.6793 35.0324 45.11 33.9775 46.1649C32.9226 47.2198 31.4918 47.8125 30 47.8125C28.5082 47.8125 27.0774 47.2198 26.0225 46.1649C24.9676 45.11 24.375 43.6793 24.375 42.1875C24.375 39.8118 27.9544 34.9162 30 32.4009Z" fill="#2173FF"/>
<path d="M35.625 30C36.6196 30 37.5734 29.6049 38.2766 28.9016C38.9799 28.1984 39.375 27.2445 39.375 26.25C39.375 24.4303 36.8325 21.5044 36.3225 20.9362C36.2323 20.8422 36.124 20.7674 36.0041 20.7163C35.8843 20.6651 35.7553 20.6388 35.625 20.6388C35.4947 20.6388 35.3657 20.6651 35.2459 20.7163C35.126 20.7674 35.0177 20.8422 34.9275 20.9362C34.4175 21.5044 31.875 24.4303 31.875 26.25C31.875 27.2445 32.2701 28.1984 32.9734 28.9016C33.6766 29.6049 34.6304 30 35.625 30ZM35.625 23.0147C36.6206 24.2634 37.5 25.6687 37.5 26.25C37.5 26.7473 37.3025 27.2242 36.9508 27.5758C36.5992 27.9274 36.1223 28.125 35.625 28.125C35.1277 28.125 34.6508 27.9274 34.2992 27.5758C33.9475 27.2242 33.75 26.7473 33.75 26.25C33.75 25.6528 34.6303 24.2578 35.625 23.0147Z" fill="#2173FF"/>
</svg>
