<svg width="280" height="110" viewBox="0 0 280 110" fill="none" xmlns="http://www.w3.org/2000/svg">
<rect width="280" height="110" fill="#2173FF"/>
<path d="M73.0874 64C78.4055 64 81.6271 60.7102 81.6271 55.2557C81.6271 49.8182 78.4055 46.5455 73.1385 46.5455H66.8999V64H73.0874ZM70.5902 60.8381V49.7074H72.9425C76.2152 49.7074 77.9453 51.3778 77.9453 55.2557C77.9453 59.1506 76.2152 60.8381 72.9339 60.8381H70.5902ZM88.0256 64.2472C89.9602 64.2472 91.2131 63.4034 91.8523 62.1847H91.9545V64H95.3977V55.1705C95.3977 52.0511 92.7557 50.7386 89.8409 50.7386C86.7045 50.7386 84.642 52.2386 84.1392 54.625L87.4972 54.8977C87.7443 54.0284 88.5199 53.3892 89.8239 53.3892C91.0597 53.3892 91.767 54.0114 91.767 55.0852V55.1364C91.767 55.9801 90.8722 56.0909 88.5966 56.3125C86.0057 56.5511 83.679 57.4205 83.679 60.3438C83.679 62.9347 85.5284 64.2472 88.0256 64.2472ZM89.0653 61.7415C87.9489 61.7415 87.1477 61.2216 87.1477 60.2244C87.1477 59.2017 87.9915 58.6989 89.2699 58.5199C90.0625 58.4091 91.358 58.2216 91.7926 57.9318V59.321C91.7926 60.6932 90.6591 61.7415 89.0653 61.7415ZM100.797 64H104.632L106.882 55.767H107.044L109.294 64H113.138L116.692 50.9091H113.027L111.033 59.6534H110.922L108.774 50.9091H105.169L103.055 59.7045H102.936L100.908 50.9091H97.2344L100.797 64ZM122.259 56.4318C122.268 54.7443 123.273 53.7557 124.739 53.7557C126.197 53.7557 127.075 54.7102 127.066 56.3125V64H130.697V55.6648C130.697 52.6136 128.907 50.7386 126.18 50.7386C124.237 50.7386 122.83 51.6932 122.242 53.2188H122.089V50.9091H118.629V64H122.259V56.4318ZM139.181 64H150.977V60.9574H142.871V56.7898H150.337V53.7472H142.871V49.5881H150.942V46.5455H139.181V64ZM164.7 54.642C164.376 52.2301 162.433 50.7386 159.126 50.7386C155.777 50.7386 153.57 52.2898 153.578 54.8125C153.57 56.7727 154.805 58.0426 157.362 58.554L159.629 59.0057C160.771 59.2358 161.291 59.6534 161.308 60.3097C161.291 61.0852 160.447 61.6392 159.178 61.6392C157.882 61.6392 157.021 61.0852 156.8 60.0199L153.229 60.2074C153.57 62.7131 155.7 64.2557 159.169 64.2557C162.561 64.2557 164.99 62.5256 164.999 59.9432C164.99 58.0511 163.754 56.9176 161.214 56.3977L158.845 55.9205C157.626 55.6562 157.175 55.2386 157.183 54.608C157.175 53.8239 158.061 53.3125 159.186 53.3125C160.447 53.3125 161.197 54.0028 161.376 54.8466L164.7 54.642ZM174.248 50.9091H171.785V47.7727H168.154V50.9091H166.364V53.6364H168.154V60.4545C168.137 63.0199 169.884 64.2898 172.518 64.179C173.455 64.1449 174.12 63.9574 174.487 63.8381L173.915 61.1364C173.737 61.1705 173.353 61.2557 173.012 61.2557C172.288 61.2557 171.785 60.983 171.785 59.9773V53.6364H174.248V50.9091ZM180.346 64.2472C182.281 64.2472 183.533 63.4034 184.173 62.1847H184.275V64H187.718V55.1705C187.718 52.0511 185.076 50.7386 182.161 50.7386C179.025 50.7386 176.962 52.2386 176.46 54.625L179.817 54.8977C180.065 54.0284 180.84 53.3892 182.144 53.3892C183.38 53.3892 184.087 54.0114 184.087 55.0852V55.1364C184.087 55.9801 183.192 56.0909 180.917 56.3125C178.326 56.5511 175.999 57.4205 175.999 60.3438C175.999 62.9347 177.849 64.2472 180.346 64.2472ZM181.386 61.7415C180.269 61.7415 179.468 61.2216 179.468 60.2244C179.468 59.2017 180.312 58.6989 181.59 58.5199C182.383 58.4091 183.678 58.2216 184.113 57.9318V59.321C184.113 60.6932 182.979 61.7415 181.386 61.7415ZM197.498 50.9091H195.035V47.7727H191.404V50.9091H189.614V53.6364H191.404V60.4545C191.387 63.0199 193.134 64.2898 195.768 64.179C196.705 64.1449 197.37 63.9574 197.737 63.8381L197.165 61.1364C196.987 61.1705 196.603 61.2557 196.262 61.2557C195.538 61.2557 195.035 60.983 195.035 59.9773V53.6364H197.498V50.9091ZM205.688 64.2557C208.927 64.2557 211.109 62.679 211.62 60.25L208.262 60.0284C207.896 61.0256 206.958 61.5455 205.748 61.5455C203.933 61.5455 202.782 60.3438 202.782 58.392V58.3835H211.697V57.3864C211.697 52.9375 209.004 50.7386 205.543 50.7386C201.691 50.7386 199.194 53.4744 199.194 57.5142C199.194 61.6648 201.657 64.2557 205.688 64.2557ZM202.782 56.1335C202.859 54.642 203.992 53.4489 205.603 53.4489C207.18 53.4489 208.271 54.5739 208.279 56.1335H202.782Z" fill="white"/>
</svg>
