<svg width="280" height="110" viewBox="0 0 280 110" fill="none" xmlns="http://www.w3.org/2000/svg">
<rect opacity="0.2" width="280" height="110" fill="#B3C3D2"/>
<path d="M53.464 55.672C53.464 56.584 53.576 57.416 53.8 58.168C54.024 58.904 54.344 59.536 54.76 60.064C55.192 60.576 55.712 60.976 56.32 61.264C56.928 61.552 57.616 61.696 58.384 61.696C59.136 61.696 59.816 61.552 60.424 61.264C61.032 60.976 61.544 60.576 61.96 60.064C62.392 59.536 62.72 58.904 62.944 58.168C63.168 57.416 63.28 56.584 63.28 55.672C63.28 54.76 63.168 53.936 62.944 53.2C62.72 52.448 62.392 51.816 61.96 51.304C61.544 50.776 61.032 50.368 60.424 50.08C59.816 49.792 59.136 49.648 58.384 49.648C57.616 49.648 56.928 49.792 56.32 50.08C55.712 50.368 55.192 50.776 54.76 51.304C54.344 51.832 54.024 52.464 53.8 53.2C53.576 53.936 53.464 54.76 53.464 55.672ZM66.448 55.672C66.448 57.096 66.232 58.352 65.8 59.44C65.384 60.528 64.808 61.44 64.072 62.176C63.352 62.896 62.504 63.44 61.528 63.808C60.552 64.176 59.512 64.36 58.408 64.36C57.304 64.36 56.256 64.176 55.264 63.808C54.288 63.44 53.432 62.896 52.696 62.176C51.976 61.44 51.4 60.528 50.968 59.44C50.536 58.352 50.32 57.096 50.32 55.672C50.32 54.248 50.536 53 50.968 51.928C51.4 50.84 51.984 49.928 52.72 49.192C53.472 48.456 54.336 47.904 55.312 47.536C56.288 47.168 57.32 46.984 58.408 46.984C59.496 46.984 60.528 47.168 61.504 47.536C62.48 47.904 63.328 48.456 64.048 49.192C64.784 49.928 65.368 50.84 65.8 51.928C66.232 53 66.448 54.248 66.448 55.672ZM76.7734 54.064C76.5334 53.984 76.1974 53.904 75.7654 53.824C75.3494 53.728 74.8614 53.68 74.3014 53.68C73.9814 53.68 73.6374 53.712 73.2694 53.776C72.9174 53.84 72.6694 53.896 72.5254 53.944V64H69.6214V52.048C70.1814 51.84 70.8774 51.648 71.7094 51.472C72.5574 51.28 73.4934 51.184 74.5174 51.184C74.7094 51.184 74.9334 51.2 75.1894 51.232C75.4454 51.248 75.7014 51.28 75.9574 51.328C76.2134 51.36 76.4614 51.408 76.7014 51.472C76.9414 51.52 77.1334 51.568 77.2774 51.616L76.7734 54.064ZM82.2291 64H79.3251V51.448H82.2291V64ZM82.5411 47.776C82.5411 48.32 82.3651 48.752 82.0131 49.072C81.6611 49.392 81.2451 49.552 80.7651 49.552C80.2691 49.552 79.8451 49.392 79.4931 49.072C79.1411 48.752 78.9651 48.32 78.9651 47.776C78.9651 47.216 79.1411 46.776 79.4931 46.456C79.8451 46.136 80.2691 45.976 80.7651 45.976C81.2451 45.976 81.6611 46.136 82.0131 46.456C82.3651 46.776 82.5411 47.216 82.5411 47.776ZM97.2859 57.712C97.2859 58.704 97.1419 59.608 96.8539 60.424C96.5659 61.24 96.1579 61.936 95.6299 62.512C95.1019 63.088 94.4619 63.536 93.7099 63.856C92.9739 64.176 92.1579 64.336 91.2619 64.336C90.3659 64.336 89.5499 64.176 88.8139 63.856C88.0779 63.536 87.4459 63.088 86.9179 62.512C86.3899 61.936 85.9739 61.24 85.6699 60.424C85.3819 59.608 85.2379 58.704 85.2379 57.712C85.2379 56.72 85.3819 55.824 85.6699 55.024C85.9739 54.208 86.3899 53.512 86.9179 52.936C87.4619 52.36 88.1019 51.92 88.8379 51.616C89.5739 51.296 90.3819 51.136 91.2619 51.136C92.1419 51.136 92.9499 51.296 93.6859 51.616C94.4379 51.92 95.0779 52.36 95.6059 52.936C96.1339 53.512 96.5419 54.208 96.8299 55.024C97.1339 55.824 97.2859 56.72 97.2859 57.712ZM94.3099 57.712C94.3099 56.464 94.0379 55.48 93.4939 54.76C92.9659 54.024 92.2219 53.656 91.2619 53.656C90.3019 53.656 89.5499 54.024 89.0059 54.76C88.4779 55.48 88.2139 56.464 88.2139 57.712C88.2139 58.976 88.4779 59.976 89.0059 60.712C89.5499 61.448 90.3019 61.816 91.2619 61.816C92.2219 61.816 92.9659 61.448 93.4939 60.712C94.0379 59.976 94.3099 58.976 94.3099 57.712ZM100.278 51.856C100.838 51.696 101.566 51.544 102.462 51.4C103.358 51.256 104.35 51.184 105.438 51.184C106.462 51.184 107.318 51.328 108.006 51.616C108.694 51.888 109.238 52.28 109.638 52.792C110.054 53.288 110.342 53.896 110.502 54.616C110.678 55.32 110.766 56.096 110.766 56.944V64H107.862V57.4C107.862 56.728 107.814 56.16 107.718 55.696C107.638 55.216 107.494 54.832 107.286 54.544C107.094 54.24 106.822 54.024 106.47 53.896C106.134 53.752 105.718 53.68 105.222 53.68C104.854 53.68 104.47 53.704 104.07 53.752C103.67 53.8 103.374 53.84 103.182 53.872V64H100.278V51.856ZM120.062 47.368H123.086V64H120.062V47.368ZM126.926 51.856C127.486 51.696 128.214 51.544 129.11 51.4C130.006 51.256 130.998 51.184 132.086 51.184C133.11 51.184 133.966 51.328 134.654 51.616C135.342 51.888 135.886 52.28 136.286 52.792C136.702 53.288 136.99 53.896 137.15 54.616C137.326 55.32 137.414 56.096 137.414 56.944V64H134.51V57.4C134.51 56.728 134.462 56.16 134.366 55.696C134.286 55.216 134.142 54.832 133.934 54.544C133.742 54.24 133.47 54.024 133.118 53.896C132.782 53.752 132.366 53.68 131.87 53.68C131.502 53.68 131.118 53.704 130.718 53.752C130.318 53.8 130.022 53.84 129.83 53.872V64H126.926V51.856ZM143.245 57.688C143.245 58.968 143.549 59.976 144.157 60.712C144.765 61.432 145.605 61.792 146.677 61.792C147.141 61.792 147.533 61.776 147.853 61.744C148.189 61.696 148.461 61.648 148.669 61.6V54.4C148.413 54.224 148.069 54.064 147.637 53.92C147.221 53.76 146.773 53.68 146.293 53.68C145.237 53.68 144.461 54.04 143.965 54.76C143.485 55.48 143.245 56.456 143.245 57.688ZM151.573 63.616C150.997 63.792 150.269 63.952 149.389 64.096C148.525 64.24 147.613 64.312 146.653 64.312C145.661 64.312 144.773 64.16 143.989 63.856C143.205 63.552 142.533 63.12 141.973 62.56C141.429 61.984 141.005 61.296 140.701 60.496C140.413 59.68 140.269 58.768 140.269 57.76C140.269 56.768 140.389 55.872 140.629 55.072C140.885 54.256 141.253 53.56 141.733 52.984C142.213 52.408 142.797 51.968 143.485 51.664C144.173 51.344 144.965 51.184 145.861 51.184C146.469 51.184 147.005 51.256 147.469 51.4C147.933 51.544 148.333 51.704 148.669 51.88V45.856L151.573 45.376V63.616ZM165.558 63.616C164.998 63.76 164.27 63.904 163.374 64.048C162.478 64.208 161.494 64.288 160.422 64.288C159.414 64.288 158.566 64.144 157.878 63.856C157.206 63.568 156.662 63.168 156.246 62.656C155.846 62.144 155.558 61.536 155.382 60.832C155.206 60.112 155.118 59.328 155.118 58.48V51.448H158.022V58.024C158.022 59.368 158.214 60.328 158.598 60.904C158.998 61.48 159.686 61.768 160.662 61.768C161.014 61.768 161.382 61.752 161.766 61.72C162.166 61.688 162.462 61.648 162.654 61.6V51.448H165.558V63.616ZM172.398 61.912C173.166 61.912 173.726 61.824 174.078 61.648C174.43 61.456 174.606 61.136 174.606 60.688C174.606 60.272 174.414 59.928 174.03 59.656C173.662 59.384 173.046 59.088 172.182 58.768C171.654 58.576 171.166 58.376 170.718 58.168C170.286 57.944 169.91 57.688 169.59 57.4C169.27 57.112 169.014 56.768 168.822 56.368C168.646 55.952 168.558 55.448 168.558 54.856C168.558 53.704 168.982 52.8 169.83 52.144C170.678 51.472 171.83 51.136 173.286 51.136C174.022 51.136 174.726 51.208 175.398 51.352C176.07 51.48 176.574 51.608 176.91 51.736L176.382 54.088C176.062 53.944 175.654 53.816 175.158 53.704C174.662 53.576 174.086 53.512 173.43 53.512C172.838 53.512 172.358 53.616 171.99 53.824C171.622 54.016 171.438 54.32 171.438 54.736C171.438 54.944 171.47 55.128 171.534 55.288C171.614 55.448 171.742 55.6 171.918 55.744C172.094 55.872 172.326 56.008 172.614 56.152C172.902 56.28 173.254 56.416 173.67 56.56C174.358 56.816 174.942 57.072 175.422 57.328C175.902 57.568 176.294 57.848 176.598 58.168C176.918 58.472 177.15 58.824 177.294 59.224C177.438 59.624 177.51 60.104 177.51 60.664C177.51 61.864 177.062 62.776 176.166 63.4C175.286 64.008 174.022 64.312 172.374 64.312C171.27 64.312 170.382 64.216 169.71 64.024C169.038 63.848 168.566 63.704 168.294 63.592L168.798 61.168C169.23 61.344 169.742 61.512 170.334 61.672C170.942 61.832 171.63 61.912 172.398 61.912ZM180.079 48.136L182.983 47.656V51.448H187.447V53.872H182.983V58.984C182.983 59.992 183.143 60.712 183.463 61.144C183.783 61.576 184.327 61.792 185.095 61.792C185.623 61.792 186.087 61.736 186.487 61.624C186.903 61.512 187.231 61.408 187.471 61.312L187.951 63.616C187.615 63.76 187.175 63.904 186.631 64.048C186.087 64.208 185.447 64.288 184.711 64.288C183.815 64.288 183.063 64.168 182.455 63.928C181.863 63.688 181.391 63.344 181.039 62.896C180.687 62.432 180.439 61.88 180.295 61.24C180.151 60.584 180.079 59.84 180.079 59.008V48.136ZM197.406 54.064C197.166 53.984 196.83 53.904 196.398 53.824C195.982 53.728 195.494 53.68 194.934 53.68C194.614 53.68 194.27 53.712 193.902 53.776C193.55 53.84 193.302 53.896 193.158 53.944V64H190.254V52.048C190.814 51.84 191.51 51.648 192.342 51.472C193.19 51.28 194.126 51.184 195.15 51.184C195.342 51.184 195.566 51.2 195.822 51.232C196.078 51.248 196.334 51.28 196.59 51.328C196.846 51.36 197.094 51.408 197.334 51.472C197.574 51.52 197.766 51.568 197.91 51.616L197.406 54.064ZM202.862 64H199.958V51.448H202.862V64ZM203.174 47.776C203.174 48.32 202.998 48.752 202.646 49.072C202.294 49.392 201.878 49.552 201.398 49.552C200.902 49.552 200.478 49.392 200.126 49.072C199.774 48.752 199.598 48.32 199.598 47.776C199.598 47.216 199.774 46.776 200.126 46.456C200.478 46.136 200.902 45.976 201.398 45.976C201.878 45.976 202.294 46.136 202.646 46.456C202.998 46.776 203.174 47.216 203.174 47.776ZM205.871 57.784C205.871 56.68 206.031 55.712 206.351 54.88C206.687 54.048 207.127 53.36 207.671 52.816C208.215 52.256 208.839 51.84 209.543 51.568C210.247 51.28 210.967 51.136 211.703 51.136C213.431 51.136 214.775 51.672 215.735 52.744C216.711 53.816 217.199 55.416 217.199 57.544C217.199 57.704 217.191 57.888 217.175 58.096C217.175 58.288 217.167 58.464 217.151 58.624H208.871C208.951 59.632 209.303 60.416 209.927 60.976C210.567 61.52 211.487 61.792 212.687 61.792C213.391 61.792 214.031 61.728 214.607 61.6C215.199 61.472 215.663 61.336 215.999 61.192L216.383 63.568C216.223 63.648 215.999 63.736 215.711 63.832C215.439 63.912 215.119 63.984 214.751 64.048C214.399 64.128 214.015 64.192 213.599 64.24C213.183 64.288 212.759 64.312 212.327 64.312C211.223 64.312 210.263 64.152 209.447 63.832C208.631 63.496 207.959 63.04 207.431 62.464C206.903 61.872 206.511 61.184 206.255 60.4C205.999 59.6 205.871 58.728 205.871 57.784ZM214.295 56.488C214.295 56.088 214.239 55.712 214.127 55.36C214.015 54.992 213.847 54.68 213.623 54.424C213.415 54.152 213.151 53.944 212.831 53.8C212.527 53.64 212.159 53.56 211.727 53.56C211.279 53.56 210.887 53.648 210.551 53.824C210.215 53.984 209.927 54.2 209.687 54.472C209.463 54.744 209.287 55.056 209.159 55.408C209.031 55.76 208.943 56.12 208.895 56.488H214.295ZM223.422 61.912C224.19 61.912 224.75 61.824 225.102 61.648C225.454 61.456 225.63 61.136 225.63 60.688C225.63 60.272 225.438 59.928 225.054 59.656C224.686 59.384 224.07 59.088 223.206 58.768C222.678 58.576 222.19 58.376 221.742 58.168C221.31 57.944 220.934 57.688 220.614 57.4C220.294 57.112 220.038 56.768 219.846 56.368C219.67 55.952 219.582 55.448 219.582 54.856C219.582 53.704 220.006 52.8 220.854 52.144C221.702 51.472 222.854 51.136 224.31 51.136C225.046 51.136 225.75 51.208 226.422 51.352C227.094 51.48 227.598 51.608 227.934 51.736L227.406 54.088C227.086 53.944 226.678 53.816 226.182 53.704C225.686 53.576 225.11 53.512 224.454 53.512C223.862 53.512 223.382 53.616 223.014 53.824C222.646 54.016 222.462 54.32 222.462 54.736C222.462 54.944 222.494 55.128 222.558 55.288C222.638 55.448 222.766 55.6 222.942 55.744C223.118 55.872 223.35 56.008 223.638 56.152C223.926 56.28 224.278 56.416 224.694 56.56C225.382 56.816 225.966 57.072 226.446 57.328C226.926 57.568 227.318 57.848 227.622 58.168C227.942 58.472 228.174 58.824 228.318 59.224C228.462 59.624 228.534 60.104 228.534 60.664C228.534 61.864 228.086 62.776 227.19 63.4C226.31 64.008 225.046 64.312 223.398 64.312C222.294 64.312 221.406 64.216 220.734 64.024C220.062 63.848 219.59 63.704 219.318 63.592L219.822 61.168C220.254 61.344 220.766 61.512 221.358 61.672C221.966 61.832 222.654 61.912 223.422 61.912Z" fill="white"/>
</svg>
