<svg width="280" height="110" viewBox="0 0 280 110" fill="none" xmlns="http://www.w3.org/2000/svg">
<rect x="0.5" y="0.5" width="279" height="109" stroke="#F0F3F6"/>
<path d="M112.992 64V47.368H123.504V49.936H116.016V54.184H122.664V56.752H116.016V64H112.992ZM135.824 63.616C135.264 63.76 134.536 63.904 133.64 64.048C132.744 64.208 131.76 64.288 130.688 64.288C129.68 64.288 128.832 64.144 128.144 63.856C127.472 63.568 126.928 63.168 126.512 62.656C126.112 62.144 125.824 61.536 125.648 60.832C125.472 60.112 125.384 59.328 125.384 58.48V51.448H128.288V58.024C128.288 59.368 128.48 60.328 128.864 60.904C129.264 61.48 129.952 61.768 130.928 61.768C131.28 61.768 131.648 61.752 132.032 61.72C132.432 61.688 132.728 61.648 132.92 61.6V51.448H135.824V63.616ZM146.672 54.064C146.432 53.984 146.096 53.904 145.664 53.824C145.248 53.728 144.76 53.68 144.2 53.68C143.88 53.68 143.536 53.712 143.168 53.776C142.816 53.84 142.568 53.896 142.424 53.944V64H139.52V52.048C140.08 51.84 140.776 51.648 141.608 51.472C142.456 51.28 143.392 51.184 144.416 51.184C144.608 51.184 144.832 51.2 145.088 51.232C145.344 51.248 145.6 51.28 145.856 51.328C146.112 51.36 146.36 51.408 146.6 51.472C146.84 51.52 147.032 51.568 147.176 51.616L146.672 54.064ZM149.2 51.856C149.76 51.696 150.488 51.544 151.384 51.4C152.28 51.256 153.272 51.184 154.36 51.184C155.384 51.184 156.24 51.328 156.928 51.616C157.616 51.888 158.16 52.28 158.56 52.792C158.976 53.288 159.264 53.896 159.424 54.616C159.6 55.32 159.688 56.096 159.688 56.944V64H156.784V57.4C156.784 56.728 156.736 56.16 156.64 55.696C156.56 55.216 156.416 54.832 156.208 54.544C156.016 54.24 155.744 54.024 155.392 53.896C155.056 53.752 154.64 53.68 154.144 53.68C153.776 53.68 153.392 53.704 152.992 53.752C152.592 53.8 152.296 53.84 152.104 53.872V64H149.2V51.856ZM166.167 64H163.263V51.448H166.167V64ZM166.479 47.776C166.479 48.32 166.303 48.752 165.951 49.072C165.599 49.392 165.183 49.552 164.703 49.552C164.207 49.552 163.783 49.392 163.431 49.072C163.079 48.752 162.903 48.32 162.903 47.776C162.903 47.216 163.079 46.776 163.431 46.456C163.783 46.136 164.207 45.976 164.703 45.976C165.183 45.976 165.599 46.136 165.951 46.456C166.303 46.776 166.479 47.216 166.479 47.776Z" fill="white"/>
</svg>
