<svg width="280" height="110" viewBox="0 0 280 110" fill="none" xmlns="http://www.w3.org/2000/svg">
<rect x="0.5" y="0.5" width="279" height="109" stroke="#F0F3F6"/>
<path d="M105.384 64.36C104.136 64.36 103.016 64.168 102.024 63.784C101.032 63.4 100.192 62.84 99.504 62.104C98.816 61.352 98.288 60.44 97.92 59.368C97.552 58.296 97.368 57.064 97.368 55.672C97.368 54.28 97.576 53.048 97.992 51.976C98.424 50.904 99.008 50 99.744 49.264C100.48 48.512 101.344 47.944 102.336 47.56C103.328 47.176 104.392 46.984 105.528 46.984C106.216 46.984 106.84 47.04 107.4 47.152C107.96 47.248 108.448 47.36 108.864 47.488C109.28 47.616 109.624 47.752 109.896 47.896C110.168 48.04 110.36 48.144 110.472 48.208L109.584 50.68C109.2 50.44 108.648 50.216 107.928 50.008C107.224 49.784 106.456 49.672 105.624 49.672C104.904 49.672 104.232 49.8 103.608 50.056C102.984 50.296 102.44 50.664 101.976 51.16C101.528 51.656 101.176 52.28 100.92 53.032C100.664 53.784 100.536 54.656 100.536 55.648C100.536 56.528 100.632 57.336 100.824 58.072C101.032 58.808 101.344 59.448 101.76 59.992C102.176 60.52 102.704 60.936 103.344 61.24C103.984 61.528 104.752 61.672 105.648 61.672C106.72 61.672 107.592 61.568 108.264 61.36C108.936 61.136 109.456 60.928 109.824 60.736L110.64 63.208C110.448 63.336 110.184 63.464 109.848 63.592C109.528 63.72 109.144 63.848 108.696 63.976C108.248 64.088 107.744 64.176 107.184 64.24C106.624 64.32 106.024 64.36 105.384 64.36ZM124.2 57.712C124.2 58.704 124.056 59.608 123.768 60.424C123.48 61.24 123.072 61.936 122.544 62.512C122.016 63.088 121.376 63.536 120.624 63.856C119.888 64.176 119.072 64.336 118.176 64.336C117.28 64.336 116.464 64.176 115.728 63.856C114.992 63.536 114.36 63.088 113.832 62.512C113.304 61.936 112.888 61.24 112.584 60.424C112.296 59.608 112.152 58.704 112.152 57.712C112.152 56.72 112.296 55.824 112.584 55.024C112.888 54.208 113.304 53.512 113.832 52.936C114.376 52.36 115.016 51.92 115.752 51.616C116.488 51.296 117.296 51.136 118.176 51.136C119.056 51.136 119.864 51.296 120.6 51.616C121.352 51.92 121.992 52.36 122.52 52.936C123.048 53.512 123.456 54.208 123.744 55.024C124.048 55.824 124.2 56.72 124.2 57.712ZM121.224 57.712C121.224 56.464 120.952 55.48 120.408 54.76C119.88 54.024 119.136 53.656 118.176 53.656C117.216 53.656 116.464 54.024 115.92 54.76C115.392 55.48 115.128 56.464 115.128 57.712C115.128 58.976 115.392 59.976 115.92 60.712C116.464 61.448 117.216 61.816 118.176 61.816C119.136 61.816 119.88 61.448 120.408 60.712C120.952 59.976 121.224 58.976 121.224 57.712ZM134.344 54.064C134.104 53.984 133.768 53.904 133.336 53.824C132.92 53.728 132.432 53.68 131.872 53.68C131.552 53.68 131.208 53.712 130.84 53.776C130.488 53.84 130.24 53.896 130.096 53.944V64H127.192V52.048C127.752 51.84 128.448 51.648 129.28 51.472C130.128 51.28 131.064 51.184 132.088 51.184C132.28 51.184 132.504 51.2 132.76 51.232C133.016 51.248 133.272 51.28 133.528 51.328C133.784 51.36 134.032 51.408 134.272 51.472C134.512 51.52 134.704 51.568 134.848 51.616L134.344 54.064ZM145.199 57.784C145.199 56.488 144.903 55.48 144.311 54.76C143.735 54.04 142.799 53.68 141.503 53.68C141.231 53.68 140.943 53.696 140.639 53.728C140.351 53.744 140.063 53.792 139.775 53.872V61.048C140.031 61.224 140.367 61.392 140.783 61.552C141.215 61.696 141.671 61.768 142.151 61.768C143.207 61.768 143.975 61.408 144.455 60.688C144.951 59.968 145.199 59 145.199 57.784ZM148.175 57.736C148.175 58.696 148.047 59.576 147.791 60.376C147.551 61.176 147.199 61.864 146.735 62.44C146.271 63.016 145.687 63.464 144.983 63.784C144.295 64.104 143.511 64.264 142.631 64.264C142.039 64.264 141.495 64.192 140.999 64.048C140.503 63.904 140.095 63.744 139.775 63.568V68.44H136.871V51.856C137.463 51.696 138.191 51.544 139.055 51.4C139.919 51.256 140.831 51.184 141.791 51.184C142.783 51.184 143.671 51.336 144.455 51.64C145.239 51.944 145.903 52.384 146.447 52.96C147.007 53.52 147.431 54.208 147.719 55.024C148.023 55.824 148.175 56.728 148.175 57.736ZM154.103 64C153.303 62.352 152.479 60.464 151.631 58.336C150.799 56.192 150.039 53.896 149.351 51.448H152.447C152.623 52.152 152.823 52.912 153.047 53.728C153.287 54.528 153.535 55.336 153.791 56.152C154.063 56.952 154.335 57.736 154.607 58.504C154.895 59.256 155.159 59.936 155.399 60.544C155.639 59.936 155.895 59.256 156.167 58.504C156.439 57.736 156.703 56.952 156.959 56.152C157.231 55.336 157.487 54.528 157.727 53.728C157.967 52.912 158.175 52.152 158.351 51.448H161.351C160.663 53.896 159.895 56.192 159.047 58.336C158.215 60.464 157.399 62.352 156.599 64H154.103ZM166.448 64H163.544V51.448H166.448V64ZM166.76 47.776C166.76 48.32 166.584 48.752 166.232 49.072C165.88 49.392 165.464 49.552 164.984 49.552C164.488 49.552 164.064 49.392 163.712 49.072C163.36 48.752 163.184 48.32 163.184 47.776C163.184 47.216 163.36 46.776 163.712 46.456C164.064 46.136 164.488 45.976 164.984 45.976C165.464 45.976 165.88 46.136 166.232 46.456C166.584 46.776 166.76 47.216 166.76 47.776ZM181.505 57.712C181.505 58.704 181.361 59.608 181.073 60.424C180.785 61.24 180.377 61.936 179.849 62.512C179.321 63.088 178.681 63.536 177.929 63.856C177.193 64.176 176.377 64.336 175.481 64.336C174.585 64.336 173.769 64.176 173.033 63.856C172.297 63.536 171.665 63.088 171.137 62.512C170.609 61.936 170.193 61.24 169.889 60.424C169.601 59.608 169.457 58.704 169.457 57.712C169.457 56.72 169.601 55.824 169.889 55.024C170.193 54.208 170.609 53.512 171.137 52.936C171.681 52.36 172.321 51.92 173.057 51.616C173.793 51.296 174.601 51.136 175.481 51.136C176.361 51.136 177.169 51.296 177.905 51.616C178.657 51.92 179.297 52.36 179.825 52.936C180.353 53.512 180.761 54.208 181.049 55.024C181.353 55.824 181.505 56.72 181.505 57.712ZM178.529 57.712C178.529 56.464 178.257 55.48 177.713 54.76C177.185 54.024 176.441 53.656 175.481 53.656C174.521 53.656 173.769 54.024 173.225 54.76C172.697 55.48 172.433 56.464 172.433 57.712C172.433 58.976 172.697 59.976 173.225 60.712C173.769 61.448 174.521 61.816 175.481 61.816C176.441 61.816 177.185 61.448 177.713 60.712C178.257 59.976 178.529 58.976 178.529 57.712Z" fill="white"/>
</svg>
