<svg width="280" height="110" viewBox="0 0 280 110" fill="none" xmlns="http://www.w3.org/2000/svg">
<rect x="0.5" y="0.5" width="279" height="109" stroke="#F0F3F6"/>
<path d="M74.576 47.2C76.976 47.2 78.808 47.64 80.072 48.52C81.352 49.4 81.992 50.744 81.992 52.552C81.992 54.808 80.88 56.336 78.656 57.136C78.96 57.504 79.304 57.952 79.688 58.48C80.072 59.008 80.464 59.584 80.864 60.208C81.264 60.816 81.648 61.448 82.016 62.104C82.384 62.744 82.712 63.376 83 64H79.616C79.312 63.424 78.984 62.848 78.632 62.272C78.28 61.68 77.92 61.112 77.552 60.568C77.2 60.008 76.848 59.488 76.496 59.008C76.144 58.512 75.816 58.072 75.512 57.688C75.288 57.704 75.096 57.712 74.936 57.712C74.776 57.712 74.624 57.712 74.48 57.712H73.016V64H69.992V47.608C70.728 47.448 71.512 47.344 72.344 47.296C73.176 47.232 73.92 47.2 74.576 47.2ZM74.792 49.816C74.152 49.816 73.56 49.84 73.016 49.888V55.264H74.336C75.072 55.264 75.72 55.224 76.28 55.144C76.84 55.064 77.304 54.92 77.672 54.712C78.056 54.504 78.344 54.224 78.536 53.872C78.728 53.52 78.824 53.072 78.824 52.528C78.824 52.016 78.728 51.584 78.536 51.232C78.344 50.88 78.064 50.6 77.696 50.392C77.344 50.184 76.92 50.04 76.424 49.96C75.928 49.864 75.384 49.816 74.792 49.816ZM84.5036 57.784C84.5036 56.68 84.6636 55.712 84.9836 54.88C85.3196 54.048 85.7596 53.36 86.3036 52.816C86.8476 52.256 87.4716 51.84 88.1756 51.568C88.8796 51.28 89.5996 51.136 90.3356 51.136C92.0636 51.136 93.4076 51.672 94.3676 52.744C95.3436 53.816 95.8316 55.416 95.8316 57.544C95.8316 57.704 95.8236 57.888 95.8076 58.096C95.8076 58.288 95.7996 58.464 95.7836 58.624H87.5036C87.5836 59.632 87.9356 60.416 88.5596 60.976C89.1996 61.52 90.1196 61.792 91.3196 61.792C92.0236 61.792 92.6636 61.728 93.2396 61.6C93.8316 61.472 94.2956 61.336 94.6316 61.192L95.0156 63.568C94.8556 63.648 94.6316 63.736 94.3436 63.832C94.0716 63.912 93.7516 63.984 93.3836 64.048C93.0316 64.128 92.6476 64.192 92.2316 64.24C91.8156 64.288 91.3916 64.312 90.9596 64.312C89.8556 64.312 88.8956 64.152 88.0796 63.832C87.2636 63.496 86.5916 63.04 86.0636 62.464C85.5356 61.872 85.1436 61.184 84.8876 60.4C84.6316 59.6 84.5036 58.728 84.5036 57.784ZM92.9276 56.488C92.9276 56.088 92.8716 55.712 92.7596 55.36C92.6476 54.992 92.4796 54.68 92.2556 54.424C92.0476 54.152 91.7836 53.944 91.4636 53.8C91.1596 53.64 90.7916 53.56 90.3596 53.56C89.9116 53.56 89.5196 53.648 89.1836 53.824C88.8476 53.984 88.5596 54.2 88.3196 54.472C88.0956 54.744 87.9196 55.056 87.7916 55.408C87.6636 55.76 87.5756 56.12 87.5276 56.488H92.9276ZM103.279 64.24C102.415 64.224 101.695 64.128 101.119 63.952C100.559 63.776 100.111 63.528 99.7745 63.208C99.4385 62.872 99.1985 62.464 99.0545 61.984C98.9265 61.488 98.8625 60.928 98.8625 60.304V45.856L101.767 45.376V59.752C101.767 60.104 101.791 60.4 101.839 60.64C101.903 60.88 102.007 61.088 102.151 61.264C102.295 61.424 102.487 61.552 102.727 61.648C102.983 61.728 103.303 61.792 103.687 61.84L103.279 64.24ZM108.964 64H106.06V51.448H108.964V64ZM109.276 47.776C109.276 48.32 109.1 48.752 108.748 49.072C108.396 49.392 107.98 49.552 107.5 49.552C107.004 49.552 106.58 49.392 106.228 49.072C105.876 48.752 105.7 48.32 105.7 47.776C105.7 47.216 105.876 46.776 106.228 46.456C106.58 46.136 107.004 45.976 107.5 45.976C107.98 45.976 108.396 46.136 108.748 46.456C109.1 46.776 109.276 47.216 109.276 47.776ZM117.084 61.96C117.98 61.96 118.66 61.912 119.124 61.816V58.6C118.964 58.552 118.732 58.504 118.428 58.456C118.124 58.408 117.788 58.384 117.42 58.384C117.1 58.384 116.772 58.408 116.436 58.456C116.116 58.504 115.82 58.592 115.548 58.72C115.292 58.848 115.084 59.032 114.924 59.272C114.764 59.496 114.684 59.784 114.684 60.136C114.684 60.824 114.9 61.304 115.332 61.576C115.764 61.832 116.348 61.96 117.084 61.96ZM116.844 51.136C117.804 51.136 118.612 51.256 119.268 51.496C119.924 51.736 120.444 52.072 120.828 52.504C121.228 52.936 121.508 53.464 121.668 54.088C121.844 54.696 121.932 55.368 121.932 56.104V63.712C121.484 63.808 120.804 63.92 119.892 64.048C118.996 64.192 117.98 64.264 116.844 64.264C116.092 64.264 115.404 64.192 114.78 64.048C114.156 63.904 113.62 63.672 113.172 63.352C112.74 63.032 112.396 62.616 112.14 62.104C111.9 61.592 111.78 60.96 111.78 60.208C111.78 59.488 111.916 58.88 112.188 58.384C112.476 57.888 112.86 57.488 113.34 57.184C113.82 56.864 114.372 56.64 114.996 56.512C115.636 56.368 116.3 56.296 116.988 56.296C117.308 56.296 117.644 56.32 117.996 56.368C118.348 56.4 118.724 56.464 119.124 56.56V56.08C119.124 55.744 119.084 55.424 119.004 55.12C118.924 54.816 118.78 54.552 118.572 54.328C118.38 54.088 118.116 53.904 117.78 53.776C117.46 53.648 117.052 53.584 116.556 53.584C115.884 53.584 115.268 53.632 114.708 53.728C114.148 53.824 113.692 53.936 113.34 54.064L112.98 51.712C113.348 51.584 113.884 51.456 114.588 51.328C115.292 51.2 116.044 51.136 116.844 51.136ZM125.489 51.856C126.049 51.696 126.777 51.544 127.673 51.4C128.569 51.256 129.561 51.184 130.649 51.184C131.673 51.184 132.529 51.328 133.217 51.616C133.905 51.888 134.449 52.28 134.849 52.792C135.265 53.288 135.553 53.896 135.713 54.616C135.889 55.32 135.977 56.096 135.977 56.944V64H133.073V57.4C133.073 56.728 133.025 56.16 132.929 55.696C132.849 55.216 132.705 54.832 132.497 54.544C132.305 54.24 132.033 54.024 131.681 53.896C131.345 53.752 130.929 53.68 130.433 53.68C130.065 53.68 129.681 53.704 129.281 53.752C128.881 53.8 128.585 53.84 128.393 53.872V64H125.489V51.856ZM138.832 57.736C138.832 56.808 138.976 55.944 139.264 55.144C139.552 54.328 139.96 53.624 140.488 53.032C141.032 52.44 141.688 51.976 142.456 51.64C143.224 51.304 144.088 51.136 145.048 51.136C146.232 51.136 147.352 51.352 148.408 51.784L147.784 54.16C147.448 54.016 147.064 53.896 146.632 53.8C146.216 53.704 145.768 53.656 145.288 53.656C144.152 53.656 143.288 54.016 142.696 54.736C142.104 55.44 141.808 56.44 141.808 57.736C141.808 58.984 142.088 59.976 142.648 60.712C143.208 61.432 144.152 61.792 145.48 61.792C145.976 61.792 146.464 61.744 146.944 61.648C147.424 61.552 147.84 61.432 148.192 61.288L148.6 63.688C148.28 63.848 147.792 63.992 147.136 64.12C146.496 64.248 145.832 64.312 145.144 64.312C144.072 64.312 143.136 64.152 142.336 63.832C141.552 63.496 140.896 63.04 140.368 62.464C139.856 61.872 139.472 61.176 139.216 60.376C138.96 59.56 138.832 58.68 138.832 57.736ZM150.152 57.784C150.152 56.68 150.312 55.712 150.632 54.88C150.968 54.048 151.408 53.36 151.952 52.816C152.496 52.256 153.12 51.84 153.824 51.568C154.528 51.28 155.248 51.136 155.984 51.136C157.712 51.136 159.056 51.672 160.016 52.744C160.992 53.816 161.48 55.416 161.48 57.544C161.48 57.704 161.472 57.888 161.456 58.096C161.456 58.288 161.448 58.464 161.432 58.624H153.152C153.232 59.632 153.584 60.416 154.208 60.976C154.848 61.52 155.768 61.792 156.968 61.792C157.672 61.792 158.312 61.728 158.888 61.6C159.48 61.472 159.944 61.336 160.28 61.192L160.664 63.568C160.504 63.648 160.28 63.736 159.992 63.832C159.72 63.912 159.4 63.984 159.032 64.048C158.68 64.128 158.296 64.192 157.88 64.24C157.464 64.288 157.04 64.312 156.608 64.312C155.504 64.312 154.544 64.152 153.728 63.832C152.912 63.496 152.24 63.04 151.712 62.464C151.184 61.872 150.792 61.184 150.536 60.4C150.28 59.6 150.152 58.728 150.152 57.784ZM158.576 56.488C158.576 56.088 158.52 55.712 158.408 55.36C158.296 54.992 158.128 54.68 157.904 54.424C157.696 54.152 157.432 53.944 157.112 53.8C156.808 53.64 156.44 53.56 156.008 53.56C155.56 53.56 155.168 53.648 154.832 53.824C154.496 53.984 154.208 54.2 153.968 54.472C153.744 54.744 153.568 55.056 153.44 55.408C153.312 55.76 153.224 56.12 153.176 56.488H158.576ZM180.817 61.384V64H170.305V47.368H173.329V61.384H180.817ZM182.837 48.136L185.741 47.656V51.448H190.205V53.872H185.741V58.984C185.741 59.992 185.901 60.712 186.221 61.144C186.541 61.576 187.085 61.792 187.853 61.792C188.381 61.792 188.845 61.736 189.245 61.624C189.661 61.512 189.989 61.408 190.229 61.312L190.709 63.616C190.373 63.76 189.933 63.904 189.389 64.048C188.845 64.208 188.205 64.288 187.469 64.288C186.573 64.288 185.821 64.168 185.213 63.928C184.621 63.688 184.149 63.344 183.797 62.896C183.445 62.432 183.197 61.88 183.053 61.24C182.909 60.584 182.837 59.84 182.837 59.008V48.136ZM195.011 57.688C195.011 58.968 195.315 59.976 195.923 60.712C196.531 61.432 197.371 61.792 198.443 61.792C198.907 61.792 199.299 61.776 199.619 61.744C199.955 61.696 200.227 61.648 200.435 61.6V54.4C200.179 54.224 199.835 54.064 199.403 53.92C198.987 53.76 198.539 53.68 198.059 53.68C197.003 53.68 196.227 54.04 195.731 54.76C195.251 55.48 195.011 56.456 195.011 57.688ZM203.339 63.616C202.763 63.792 202.035 63.952 201.155 64.096C200.291 64.24 199.379 64.312 198.419 64.312C197.427 64.312 196.539 64.16 195.755 63.856C194.971 63.552 194.299 63.12 193.739 62.56C193.195 61.984 192.771 61.296 192.467 60.496C192.179 59.68 192.035 58.768 192.035 57.76C192.035 56.768 192.155 55.872 192.395 55.072C192.651 54.256 193.019 53.56 193.499 52.984C193.979 52.408 194.563 51.968 195.251 51.664C195.939 51.344 196.731 51.184 197.627 51.184C198.235 51.184 198.771 51.256 199.235 51.4C199.699 51.544 200.099 51.704 200.435 51.88V45.856L203.339 45.376V63.616ZM210.292 62.416C210.292 62.976 210.1 63.432 209.716 63.784C209.348 64.136 208.9 64.312 208.372 64.312C207.828 64.312 207.372 64.136 207.004 63.784C206.636 63.432 206.452 62.976 206.452 62.416C206.452 61.856 206.636 61.4 207.004 61.048C207.372 60.68 207.828 60.496 208.372 60.496C208.9 60.496 209.348 60.68 209.716 61.048C210.1 61.4 210.292 61.856 210.292 62.416Z" fill="white"/>
</svg>
