<svg width="280" height="110" viewBox="0 0 280 110" fill="none" xmlns="http://www.w3.org/2000/svg">
<rect x="0.5" y="0.5" width="279" height="109" stroke="#F0F3F6"/>
<path d="M115.776 65H112.872V52.448H115.776V65ZM116.088 48.776C116.088 49.32 115.912 49.752 115.56 50.072C115.208 50.392 114.792 50.552 114.312 50.552C113.816 50.552 113.392 50.392 113.04 50.072C112.688 49.752 112.512 49.32 112.512 48.776C112.512 48.216 112.688 47.776 113.04 47.456C113.392 47.136 113.816 46.976 114.312 46.976C114.792 46.976 115.208 47.136 115.56 47.456C115.912 47.776 116.088 48.216 116.088 48.776ZM123.657 62.744C124.745 62.744 125.537 62.56 126.033 62.192C126.529 61.824 126.777 61.304 126.777 60.632C126.777 60.232 126.689 59.888 126.513 59.6C126.353 59.312 126.113 59.056 125.793 58.832C125.489 58.592 125.113 58.376 124.665 58.184C124.217 57.976 123.705 57.776 123.129 57.584C122.553 57.376 121.993 57.152 121.449 56.912C120.921 56.656 120.449 56.344 120.033 55.976C119.633 55.608 119.305 55.168 119.049 54.656C118.809 54.144 118.689 53.528 118.689 52.808C118.689 51.304 119.209 50.128 120.249 49.28C121.289 48.416 122.705 47.984 124.497 47.984C125.537 47.984 126.457 48.104 127.257 48.344C128.073 48.568 128.713 48.816 129.177 49.088L128.241 51.536C127.697 51.232 127.097 51 126.441 50.84C125.801 50.68 125.137 50.6 124.449 50.6C123.633 50.6 122.993 50.768 122.529 51.104C122.081 51.44 121.857 51.912 121.857 52.52C121.857 52.888 121.929 53.208 122.073 53.48C122.233 53.736 122.449 53.968 122.721 54.176C123.009 54.384 123.337 54.576 123.705 54.752C124.089 54.928 124.505 55.096 124.953 55.256C125.737 55.544 126.433 55.84 127.041 56.144C127.665 56.432 128.185 56.784 128.601 57.2C129.033 57.6 129.361 58.08 129.585 58.64C129.809 59.184 129.921 59.848 129.921 60.632C129.921 62.136 129.385 63.304 128.313 64.136C127.257 64.952 125.705 65.36 123.657 65.36C122.969 65.36 122.337 65.312 121.761 65.216C121.201 65.136 120.697 65.032 120.249 64.904C119.817 64.776 119.441 64.648 119.121 64.52C118.801 64.376 118.545 64.248 118.353 64.136L119.241 61.664C119.673 61.904 120.257 62.144 120.993 62.384C121.729 62.624 122.617 62.744 123.657 62.744ZM132.298 49.136L135.202 48.656V52.448H139.666V54.872H135.202V59.984C135.202 60.992 135.362 61.712 135.682 62.144C136.002 62.576 136.546 62.792 137.314 62.792C137.842 62.792 138.306 62.736 138.706 62.624C139.122 62.512 139.45 62.408 139.69 62.312L140.17 64.616C139.834 64.76 139.394 64.904 138.85 65.048C138.306 65.208 137.666 65.288 136.93 65.288C136.034 65.288 135.282 65.168 134.674 64.928C134.082 64.688 133.61 64.344 133.258 63.896C132.906 63.432 132.658 62.88 132.514 62.24C132.37 61.584 132.298 60.84 132.298 60.008V49.136ZM141.566 58.784C141.566 57.68 141.726 56.712 142.046 55.88C142.382 55.048 142.822 54.36 143.366 53.816C143.91 53.256 144.534 52.84 145.238 52.568C145.942 52.28 146.662 52.136 147.398 52.136C149.126 52.136 150.47 52.672 151.43 53.744C152.406 54.816 152.894 56.416 152.894 58.544C152.894 58.704 152.886 58.888 152.87 59.096C152.87 59.288 152.862 59.464 152.846 59.624H144.566C144.646 60.632 144.998 61.416 145.622 61.976C146.262 62.52 147.182 62.792 148.382 62.792C149.086 62.792 149.726 62.728 150.302 62.6C150.894 62.472 151.358 62.336 151.694 62.192L152.078 64.568C151.918 64.648 151.694 64.736 151.406 64.832C151.134 64.912 150.814 64.984 150.446 65.048C150.094 65.128 149.71 65.192 149.294 65.24C148.878 65.288 148.454 65.312 148.022 65.312C146.918 65.312 145.958 65.152 145.142 64.832C144.326 64.496 143.654 64.04 143.126 63.464C142.598 62.872 142.206 62.184 141.95 61.4C141.694 60.6 141.566 59.728 141.566 58.784ZM149.99 57.488C149.99 57.088 149.934 56.712 149.822 56.36C149.71 55.992 149.542 55.68 149.318 55.424C149.11 55.152 148.846 54.944 148.526 54.8C148.222 54.64 147.854 54.56 147.422 54.56C146.974 54.56 146.582 54.648 146.246 54.824C145.91 54.984 145.622 55.2 145.382 55.472C145.158 55.744 144.982 56.056 144.854 56.408C144.726 56.76 144.638 57.12 144.59 57.488H149.99ZM164.301 58.784C164.301 57.488 164.005 56.48 163.413 55.76C162.837 55.04 161.901 54.68 160.605 54.68C160.333 54.68 160.045 54.696 159.741 54.728C159.453 54.744 159.165 54.792 158.877 54.872V62.048C159.133 62.224 159.469 62.392 159.885 62.552C160.317 62.696 160.773 62.768 161.253 62.768C162.309 62.768 163.077 62.408 163.557 61.688C164.053 60.968 164.301 60 164.301 58.784ZM167.277 58.736C167.277 59.696 167.149 60.576 166.893 61.376C166.653 62.176 166.301 62.864 165.837 63.44C165.373 64.016 164.789 64.464 164.085 64.784C163.397 65.104 162.613 65.264 161.733 65.264C161.141 65.264 160.597 65.192 160.101 65.048C159.605 64.904 159.197 64.744 158.877 64.568V69.44H155.973V52.856C156.565 52.696 157.293 52.544 158.157 52.4C159.021 52.256 159.933 52.184 160.893 52.184C161.885 52.184 162.773 52.336 163.557 52.64C164.341 52.944 165.005 53.384 165.549 53.96C166.109 54.52 166.533 55.208 166.821 56.024C167.125 56.824 167.277 57.728 167.277 58.736Z" fill="white"/>
</svg>
